<svg width="152" height="28" viewBox="0 0 152 28" fill="none" xmlns="http://www.w3.org/2000/svg">
<rect width="28" height="28" rx="4" fill="#015A50"/>
<path d="M11 14.0004L13 16.0004L17 12.0004M22 15.0004C22 20.0004 18.5 22.5005 14.34 23.9505C14.1222 24.0243 13.8855 24.0207 13.67 23.9405C9.5 22.5005 6 20.0004 6 15.0004V8.00045C6 7.73523 6.10536 7.48088 6.29289 7.29334C6.48043 7.10581 6.73478 7.00045 7 7.00045C9 7.00045 11.5 5.80045 13.24 4.28045C13.4519 4.09945 13.7214 4 14 4C14.2786 4 14.5481 4.09945 14.76 4.28045C16.51 5.81045 19 7.00045 21 7.00045C21.2652 7.00045 21.5196 7.10581 21.7071 7.29334C21.8946 7.48088 22 7.73523 22 8.00045V15.0004Z" stroke="white" stroke-width="1.5" stroke-linecap="round" stroke-linejoin="round"/>
<path d="M42.288 6.592C43.984 6.592 45.36 7.136 46.416 8.224L45.584 9.088C44.6987 8.23467 43.6107 7.808 42.32 7.808C41.04 7.808 39.9947 8.24533 39.184 9.12C38.384 9.99467 37.984 11.0933 37.984 12.416C37.984 13.76 38.3893 14.864 39.2 15.728C40.0107 16.5813 41.0453 17.008 42.304 17.008C42.8693 17.008 43.4027 16.9333 43.904 16.784C44.4053 16.624 44.768 16.4693 44.992 16.32C45.2267 16.16 45.424 16 45.584 15.84V13.488H43.088V12.352H46.832V16.4C45.6373 17.6053 44.112 18.208 42.256 18.208C40.6453 18.208 39.3013 17.664 38.224 16.576C37.1573 15.488 36.624 14.1013 36.624 12.416C36.624 10.7627 37.1573 9.38133 38.224 8.272C39.3013 7.152 40.656 6.592 42.288 6.592ZM49.0453 18V6.8H51.3493C53.2479 6.8 54.7199 7.296 55.7653 8.288C56.8213 9.26933 57.3493 10.64 57.3493 12.4C57.3493 14.2347 56.8213 15.6267 55.7653 16.576C54.7199 17.5253 53.2479 18 51.3493 18H49.0453ZM50.3413 16.848H51.6053C52.9813 16.848 54.0586 16.4693 54.8373 15.712C55.6266 14.944 56.0213 13.84 56.0213 12.4C56.0213 11.0133 55.6213 9.93067 54.8213 9.152C54.0319 8.36267 52.9599 7.968 51.6053 7.968H50.3413V16.848ZM59.2328 18V6.8H62.3048C63.3288 6.8 64.1394 7.088 64.7368 7.664C65.3448 8.24 65.6488 9.02933 65.6488 10.032C65.6488 11.0347 65.3394 11.8347 64.7208 12.432C64.1021 13.0187 63.2968 13.312 62.3048 13.312H60.5288V18H59.2328ZM60.5288 12.16H62.1927C62.8541 12.16 63.3714 11.968 63.7448 11.584C64.1288 11.2 64.3208 10.6827 64.3208 10.032C64.3208 9.392 64.1341 8.88533 63.7608 8.512C63.3874 8.13867 62.8648 7.952 62.1927 7.952H60.5288V12.16ZM67.3578 18V6.8H70.2057C71.3364 6.8 72.2004 7.072 72.7978 7.616C73.3951 8.16 73.6938 8.92267 73.6938 9.904C73.6938 10.5973 73.5231 11.216 73.1818 11.76C72.8511 12.2933 72.3711 12.6613 71.7418 12.864L74.5258 18H73.0858L70.5578 13.136H68.6538V18H67.3578ZM68.6538 12H70.2057C71.6244 12 72.3338 11.3067 72.3338 9.92C72.3338 8.608 71.5978 7.952 70.1258 7.952H68.6538V12ZM88.4263 15.792L88.8263 16.928C88.6343 17.0987 88.3996 17.2693 88.1223 17.44C87.8449 17.6107 87.4343 17.7813 86.8903 17.952C86.3463 18.1227 85.7863 18.208 85.2103 18.208C83.5783 18.208 82.2236 17.6587 81.1463 16.56C80.0689 15.4507 79.5303 14.064 79.5303 12.4C79.5303 10.7573 80.0743 9.38133 81.1623 8.272C82.2503 7.152 83.5889 6.592 85.1783 6.592C86.5329 6.592 87.6903 6.98133 88.6503 7.76L88.2343 8.912C87.3276 8.176 86.3196 7.808 85.2103 7.808C83.9729 7.808 82.9383 8.25067 82.1063 9.136C81.2849 10.0107 80.8743 11.0987 80.8743 12.4C80.8743 13.7227 81.2796 14.8213 82.0903 15.696C82.9116 16.56 83.9623 16.992 85.2423 16.992C86.4049 16.992 87.4663 16.592 88.4263 15.792ZM91.2303 13.84C91.2303 14.7787 91.5129 15.552 92.0783 16.16C92.6543 16.7573 93.3849 17.056 94.2703 17.056C95.1663 17.056 95.9023 16.752 96.4783 16.144C97.0543 15.536 97.3423 14.768 97.3423 13.84C97.3423 12.912 97.0543 12.144 96.4783 11.536C95.9023 10.928 95.1663 10.624 94.2703 10.624C93.3849 10.624 92.6543 10.9333 92.0783 11.552C91.5129 12.16 91.2303 12.9227 91.2303 13.84ZM91.1663 16.976C90.3449 16.144 89.9342 15.0987 89.9342 13.84C89.9342 12.5813 90.3449 11.5413 91.1663 10.72C91.9983 9.888 93.0383 9.472 94.2863 9.472C95.5343 9.472 96.5689 9.888 97.3903 10.72C98.2116 11.552 98.6223 12.592 98.6223 13.84C98.6223 15.088 98.2063 16.128 97.3743 16.96C96.5529 17.792 95.5183 18.208 94.2703 18.208C93.0223 18.208 91.9876 17.7973 91.1663 16.976ZM111.876 12.608V18H110.612V12.992C110.612 11.4133 109.988 10.624 108.74 10.624C108.132 10.624 107.636 10.832 107.252 11.248C106.879 11.664 106.692 12.2507 106.692 13.008V18H105.428V12.752C105.428 12.0907 105.258 11.5733 104.916 11.2C104.575 10.816 104.111 10.624 103.524 10.624C102.959 10.624 102.479 10.8427 102.084 11.28C101.7 11.7067 101.508 12.2667 101.508 12.96V18H100.244V9.68H101.492V10.88C101.663 10.496 101.962 10.1653 102.388 9.888C102.815 9.61067 103.3 9.472 103.844 9.472C104.452 9.472 104.97 9.61067 105.396 9.888C105.834 10.1547 106.154 10.5227 106.356 10.992C106.868 9.97867 107.759 9.472 109.028 9.472C109.935 9.472 110.634 9.76 111.124 10.336C111.626 10.912 111.876 11.6693 111.876 12.608ZM113.994 20.992V9.68H115.21V10.992C115.904 9.97867 116.869 9.472 118.106 9.472C119.29 9.472 120.261 9.88267 121.018 10.704C121.786 11.5147 122.17 12.5547 122.17 13.824C122.17 15.1147 121.802 16.1707 121.066 16.992C120.33 17.8027 119.376 18.208 118.202 18.208C117.445 18.208 116.816 18.0373 116.314 17.696C115.813 17.3547 115.461 17.008 115.258 16.656V20.992H113.994ZM115.21 13.824C115.21 14.816 115.482 15.6053 116.026 16.192C116.57 16.768 117.248 17.056 118.058 17.056C118.88 17.056 119.552 16.7573 120.074 16.16C120.608 15.552 120.874 14.7733 120.874 13.824C120.874 12.864 120.602 12.0907 120.058 11.504C119.525 10.9173 118.848 10.624 118.026 10.624C117.184 10.624 116.501 10.9333 115.978 11.552C115.466 12.1707 115.21 12.928 115.21 13.824ZM123.807 18V6.432H125.071V18H123.807ZM127.244 18V9.68H128.508V18H127.244ZM127.004 7.536C127.004 7.30133 127.084 7.09867 127.244 6.928C127.415 6.75733 127.623 6.672 127.868 6.672C128.114 6.672 128.322 6.75733 128.492 6.928C128.663 7.088 128.748 7.29067 128.748 7.536C128.748 7.78133 128.663 7.98933 128.492 8.16C128.322 8.33067 128.114 8.416 127.868 8.416C127.623 8.416 127.415 8.33067 127.244 8.16C127.084 7.98933 127.004 7.78133 127.004 7.536ZM130.138 15.44C130.138 14.6507 130.436 14 131.034 13.488C131.631 12.9653 132.399 12.704 133.338 12.704C133.828 12.704 134.266 12.7787 134.65 12.928C135.044 13.0773 135.338 13.2533 135.53 13.456V12.432C135.53 11.856 135.348 11.408 134.986 11.088C134.623 10.7573 134.132 10.592 133.514 10.592C132.692 10.592 131.876 10.832 131.066 11.312L130.554 10.384C131.524 9.776 132.548 9.472 133.626 9.472C134.714 9.472 135.514 9.744 136.026 10.288C136.538 10.832 136.794 11.5733 136.794 12.512V18H135.706L135.562 17.296C135.028 17.904 134.276 18.208 133.306 18.208C132.388 18.208 131.631 17.952 131.034 17.44C130.436 16.9173 130.138 16.2507 130.138 15.44ZM131.994 14.208C131.61 14.528 131.418 14.9333 131.418 15.424C131.418 15.9147 131.61 16.3253 131.994 16.656C132.378 16.9867 132.884 17.152 133.514 17.152C134.122 17.152 134.618 16.992 135.002 16.672C135.386 16.3413 135.578 15.9253 135.578 15.424C135.578 14.9013 135.386 14.4853 135.002 14.176C134.628 13.8667 134.127 13.712 133.498 13.712C132.879 13.712 132.378 13.8773 131.994 14.208ZM142.566 9.472C143.505 9.472 144.225 9.78133 144.726 10.4C145.238 11.0187 145.494 11.8187 145.494 12.8V18H144.23V12.752C144.23 12.1013 144.043 11.584 143.67 11.2C143.307 10.816 142.838 10.624 142.262 10.624C141.622 10.624 141.099 10.8427 140.694 11.28C140.299 11.7067 140.102 12.2613 140.102 12.944V18H138.838V9.68H140.086V10.88C140.299 10.4853 140.625 10.1547 141.062 9.888C141.51 9.61067 142.011 9.472 142.566 9.472ZM147.7 9.68V7.936H148.964V9.68H150.788V10.752H148.964V15.04C148.964 15.7867 149.076 16.2933 149.3 16.56C149.534 16.8267 149.934 16.96 150.5 16.96L150.852 16.944V18.064C150.628 18.096 150.372 18.112 150.084 18.112C148.494 18.112 147.7 17.1253 147.7 15.152V10.752H146.724V9.68H147.7Z" fill="#015A50"/>
</svg>
