<svg width="125" height="21" viewBox="0 0 125 21" fill="none" xmlns="http://www.w3.org/2000/svg">
<path d="M1.32797 1.31497C1.74757 0.886908 2.25053 0.549449 2.80574 0.323458C3.36096 0.0974671 3.95663 -0.0122514 4.55594 0.00108512H5.71445C6.31596 -0.0110726 6.91354 0.100715 7.46998 0.329488C8.02641 0.558261 8.52979 0.89912 8.94876 1.33084C9.37648 1.75186 9.71345 2.25599 9.9389 2.81218C10.1643 3.36836 10.2735 3.96482 10.2596 4.56479V5.74221C10.2465 6.34208 10.356 6.93831 10.5814 7.49439C10.8068 8.05047 11.1434 8.55469 11.5705 8.97615C11.9882 9.40599 12.4896 9.74573 13.0437 9.97443C13.5977 10.2031 14.1928 10.3159 14.7921 10.3059H15.9665C16.5653 10.3192 17.1605 10.2094 17.7152 9.98343C18.2699 9.75743 18.7723 9.41999 19.1913 8.99202C19.621 8.57239 19.9604 8.06932 20.1886 7.51372C20.4167 6.95813 20.5288 6.36176 20.518 5.76125V4.587C20.5063 3.98637 20.618 3.38971 20.8462 2.83399C21.0744 2.27826 21.4143 1.7753 21.8448 1.35623C22.2646 0.927618 22.7681 0.589829 23.3239 0.363814C23.8797 0.137799 24.476 0.0283797 25.0759 0.0423425H26.2471C26.846 0.0321811 27.4406 0.144945 27.9942 0.373664C28.5477 0.602383 29.0485 0.942197 29.4655 1.3721C29.8953 1.79226 30.2344 2.29595 30.462 2.85213C30.6896 3.40831 30.801 4.00521 30.7891 4.60604V5.78347C30.7752 6.38344 30.8844 6.97989 31.1098 7.53608C31.3353 8.09226 31.6722 8.59639 32.1 9.01741C32.5174 9.4477 33.0187 9.78775 33.5728 10.0165C34.127 10.2452 34.7222 10.3578 35.3216 10.3472H36.4928C37.0921 10.3605 37.6878 10.2508 38.243 10.0248C38.7982 9.7988 39.3012 9.46134 39.7208 9.03328C40.1493 8.61292 40.4877 8.10965 40.7153 7.55417C40.9428 6.9987 41.0548 6.40268 41.0443 5.80251V4.62826C41.032 4.02869 41.1423 3.43292 41.3682 2.87741C41.5941 2.32189 41.9311 1.81832 42.3584 1.39749C42.778 0.969423 43.2809 0.631964 43.8361 0.405973C44.3913 0.179982 44.987 0.0702633 45.5863 0.0835998H46.7607C47.3596 0.0736268 47.9541 0.186477 48.5077 0.415185C49.0612 0.643893 49.562 0.983606 49.9792 1.41336C50.4076 1.83399 50.7453 2.33798 50.9713 2.8942C51.1973 3.45043 51.3068 4.04708 51.2932 4.6473V5.82472C51.2801 6.42487 51.3899 7.02135 51.6159 7.5775C51.8419 8.13364 52.1792 8.6377 52.6072 9.05867C53.024 9.48876 53.5247 9.82849 54.0784 10.0567C54.6321 10.2849 55.2269 10.3968 55.8257 10.3852H57.0001C57.5997 10.3987 58.1956 10.2888 58.751 10.0622C59.3063 9.83563 59.809 9.49728 60.228 9.06819C60.6568 8.64865 60.9954 8.14598 61.2229 7.59097C61.4505 7.03597 61.5624 6.44034 61.5516 5.84059V4.66634C61.5405 4.06609 61.6523 3.46991 61.8798 2.91436C62.1074 2.3588 62.4461 1.85559 62.8751 1.43557C63.2951 1.00796 63.7981 0.670805 64.3532 0.444847C64.9084 0.218889 65.5039 0.108912 66.1031 0.121684H67.2902C67.8872 0.113299 68.4797 0.227236 69.031 0.456477C69.5823 0.685718 70.0809 1.02541 70.4959 1.45462C70.9238 1.8757 71.261 2.37977 71.487 2.93589C71.713 3.49201 71.8229 4.08843 71.81 4.68856V5.86281C71.7965 6.46273 71.9058 7.05907 72.1312 7.6152C72.3567 8.17134 72.6934 8.67551 73.1208 9.09675C73.5382 9.52705 74.0395 9.86709 74.5937 10.0958C75.1478 10.3246 75.743 10.4371 76.3425 10.4265H77.5137C78.1132 10.4392 78.7089 10.3289 79.2641 10.1024C79.8193 9.87588 80.3222 9.53793 80.7416 9.10944C81.1711 8.69029 81.5104 8.18776 81.7385 7.63272C81.9667 7.07768 82.0789 6.48185 82.0684 5.88185V4.7076C82.0574 4.10755 82.1695 3.51161 82.3977 2.95652C82.6259 2.40142 82.9653 1.89893 83.3951 1.48C83.8138 1.05231 84.3156 0.714815 84.8697 0.48831C85.4237 0.261805 86.0183 0.151077 86.6167 0.162941H87.7911C88.3905 0.152721 88.9856 0.265445 89.5397 0.494154C90.0938 0.722864 90.5951 1.06271 91.0127 1.4927C91.4402 1.91453 91.777 2.41926 92.0024 2.97592C92.2279 3.53257 92.3371 4.12941 92.3236 4.72982V5.90406C92.3101 6.50398 92.4194 7.10033 92.6448 7.65646C92.8703 8.21259 93.207 8.71677 93.6345 9.13801C94.0511 9.56976 94.5521 9.91118 95.1063 10.141C95.6605 10.3709 96.2561 10.4843 96.8561 10.4741L164.462 10.7248C165.061 10.7218 165.655 10.8381 166.208 11.0667C166.762 11.2954 167.264 11.6319 167.686 12.0566C168.109 12.4814 168.442 12.9859 168.667 13.5407C168.892 14.0956 169.005 14.6897 168.998 15.2885V16.4628C169.003 17.0611 168.888 17.6544 168.661 18.208C168.434 18.7615 168.098 19.2642 167.675 19.6868C167.251 20.1093 166.747 20.4431 166.193 20.6688C165.639 20.8945 165.045 21.0074 164.447 21.0011L96.8402 20.7504C96.2409 20.7542 95.6469 20.6386 95.0928 20.4103C94.5388 20.182 94.0358 19.8456 93.6132 19.4207C93.1906 18.9958 92.857 18.491 92.6317 17.9357C92.4065 17.3804 92.2942 16.7858 92.3014 16.1867V15.0124C92.3081 14.4139 92.1957 13.82 91.9707 13.2654C91.7457 12.7107 91.4126 12.2063 90.9908 11.7816C90.569 11.3569 90.0669 11.0204 89.5138 10.7915C88.9606 10.5627 88.3675 10.4462 87.7689 10.4487H86.5945C85.9957 10.4428 85.4017 10.5563 84.8472 10.7825C84.2927 11.0087 83.7889 11.3431 83.3651 11.7662C82.9414 12.1893 82.6062 12.6926 82.3792 13.2467C82.1522 13.8008 82.0379 14.3946 82.043 14.9934V16.1676C82.0485 16.7665 81.9345 17.3605 81.7076 17.9148C81.4808 18.4691 81.1456 18.9725 80.7218 19.3957C80.2979 19.8189 79.7939 20.1534 79.2393 20.3794C78.6846 20.6055 78.0904 20.7186 77.4914 20.7123H76.3202C75.7215 20.7157 75.1281 20.5999 74.5746 20.3716C74.0211 20.1433 73.5186 19.8071 73.0964 19.3826C72.6742 18.9581 72.3408 18.4538 72.1156 17.8991C71.8904 17.3444 71.7778 16.7504 71.7846 16.1518V14.9712C71.7918 14.3725 71.6796 13.7785 71.4548 13.2236C71.23 12.6688 70.8969 12.1642 70.475 11.7394C70.0531 11.3146 69.5508 10.9781 68.9975 10.7494C68.4442 10.5207 67.8508 10.4045 67.2521 10.4075H66.0777C65.4789 10.4015 64.8849 10.515 64.3304 10.7412C63.7759 10.9674 63.2721 11.3019 62.8484 11.725C62.4246 12.1481 62.0894 12.6514 61.8624 13.2055C61.6354 13.7596 61.5211 14.3534 61.5262 14.9521V16.1264C61.5313 16.7251 61.417 17.3189 61.19 17.873C60.963 18.4271 60.6278 18.9304 60.204 19.3535C59.7803 19.7766 59.2765 20.1111 58.722 20.3373C58.1675 20.5635 57.5735 20.677 56.9747 20.671H55.8003C55.2016 20.674 54.6082 20.5578 54.0549 20.3291C53.5015 20.1004 52.9993 19.7639 52.5774 19.3391C52.1555 18.9143 51.8224 18.4097 51.5976 17.8549C51.3727 17.3 51.2606 16.706 51.2678 16.1073V14.9172C51.2754 14.3186 51.1636 13.7245 50.9389 13.1696C50.7141 12.6148 50.381 12.1103 49.959 11.6856C49.537 11.261 49.0345 10.9248 48.481 10.6966C47.9275 10.4684 47.334 10.3528 46.7353 10.3567H45.5641C44.9643 10.3516 44.3695 10.4662 43.8146 10.6937C43.2596 10.9212 42.7556 11.2572 42.3321 11.6818C41.9085 12.1065 41.5739 12.6114 41.3479 13.1669C41.1219 13.7225 41.009 14.3175 41.0158 14.9172V16.0915C41.02 16.69 40.905 17.2833 40.6774 17.8369C40.4498 18.3905 40.1142 18.8932 39.6902 19.3156C39.2662 19.7381 38.7623 20.0719 38.2079 20.2975C37.6534 20.5232 37.0596 20.6361 36.4611 20.6298H35.2898C34.691 20.6328 34.0975 20.5165 33.544 20.2879C32.9905 20.0592 32.488 19.7227 32.0659 19.298C31.6437 18.8732 31.3103 18.3687 31.0851 17.8139C30.8599 17.259 30.7474 16.6648 30.7542 16.0661V14.8918C30.7609 14.2933 30.6485 13.6994 30.4235 13.1448C30.1985 12.5901 29.8654 12.0858 29.4436 11.661C29.0218 11.2363 28.5197 10.8998 27.9666 10.6709C27.4135 10.4421 26.8203 10.3256 26.2217 10.3281H25.0505C24.4522 10.3231 23.8588 10.437 23.3049 10.6633C22.7511 10.8896 22.2477 11.2238 21.8242 11.6464C21.4006 12.069 21.0654 12.5716 20.8379 13.125C20.6104 13.6783 20.4952 14.2713 20.499 14.8696V16.047C20.5036 16.6459 20.3889 17.2398 20.1616 17.7939C19.9342 18.348 19.5987 18.8513 19.1747 19.2744C18.7507 19.6974 18.2467 20.0318 17.6921 20.258C17.1374 20.4842 16.5432 20.5976 15.9443 20.5917H14.7731C14.1739 20.6029 13.5787 20.4909 13.0246 20.2627C12.4704 20.0345 11.969 19.695 11.5514 19.2651C11.125 18.8423 10.7887 18.3375 10.5629 17.7811C10.337 17.2247 10.2263 16.6283 10.2374 16.028V14.8537C10.2521 14.2535 10.1437 13.6565 9.91878 13.0998C9.69387 12.543 9.35726 12.0383 8.92972 11.6166C8.51295 11.1873 8.01266 10.8478 7.45969 10.6191C6.90672 10.3904 6.31278 10.2773 5.71445 10.2869H4.54007C3.93964 10.298 3.34333 10.1857 2.78807 9.95692C2.23282 9.72819 1.73046 9.38789 1.3121 8.95711C0.883957 8.53442 0.546805 8.02864 0.321374 7.47086C0.0959429 6.91307 -0.0130027 6.31508 0.0012356 5.71365V4.54574C-0.0088297 3.94534 0.103629 3.34918 0.331743 2.7937C0.559856 2.23821 0.898834 1.73506 1.32797 1.31497Z" fill="#FAAA28"/>
</svg>
