<svg width="125" height="28" viewBox="0 0 125 28" fill="none" xmlns="http://www.w3.org/2000/svg">
<rect width="28" height="28" rx="4" fill="#015A50"/>
<path d="M11 14.0004L13 16.0004L17 12.0004M22 15.0004C22 20.0004 18.5 22.5005 14.34 23.9505C14.1222 24.0243 13.8855 24.0207 13.67 23.9405C9.5 22.5005 6 20.0004 6 15.0004V8.00045C6 7.73523 6.10536 7.48088 6.29289 7.29334C6.48043 7.10581 6.73478 7.00045 7 7.00045C9 7.00045 11.5 5.80045 13.24 4.28045C13.4519 4.09945 13.7214 4 14 4C14.2786 4 14.5481 4.09945 14.76 4.28045C16.51 5.81045 19 7.00045 21 7.00045C21.2652 7.00045 21.5196 7.10581 21.7071 7.29334C21.8946 7.48088 22 7.73523 22 8.00045V15.0004Z" stroke="white" stroke-width="1.5" stroke-linecap="round" stroke-linejoin="round"/>
<path d="M37.264 18V6.8H38.56V18H37.264ZM40.3721 15.744L41.4761 15.264C41.8815 16.4267 42.6975 17.008 43.9241 17.008C44.5321 17.008 45.0228 16.8427 45.3961 16.512C45.7695 16.1813 45.9561 15.728 45.9561 15.152C45.9561 14.7147 45.8228 14.336 45.5561 14.016C45.3001 13.6853 44.9801 13.4293 44.5961 13.248C44.2121 13.056 43.7908 12.8427 43.3321 12.608C42.8735 12.3733 42.4521 12.144 42.0681 11.92C41.6841 11.6853 41.3588 11.36 41.0921 10.944C40.8361 10.5173 40.7081 10.0213 40.7081 9.456C40.7081 8.63467 40.9961 7.952 41.5721 7.408C42.1588 6.864 42.9375 6.592 43.9081 6.592C44.7935 6.592 45.4921 6.82133 46.0041 7.28C46.5268 7.728 46.8841 8.21333 47.0761 8.736L45.9881 9.184C45.5615 8.24533 44.8628 7.776 43.8921 7.776C43.2948 7.776 42.8308 7.936 42.5001 8.256C42.1695 8.576 42.0041 8.976 42.0041 9.456C42.0041 9.92533 42.1855 10.3307 42.5481 10.672C42.9108 11.0027 43.3481 11.2853 43.8601 11.52C44.3721 11.7547 44.8841 12.0053 45.3961 12.272C45.9188 12.5387 46.3615 12.9067 46.7241 13.376C47.0868 13.8453 47.2681 14.4107 47.2681 15.072C47.2681 15.9787 46.9588 16.7307 46.3401 17.328C45.7215 17.9147 44.9001 18.208 43.8761 18.208C42.8948 18.208 42.1161 17.9627 41.5401 17.472C40.9748 16.9813 40.5855 16.4053 40.3721 15.744ZM48.5299 12.4C48.5299 10.7467 49.0739 9.36533 50.1619 8.256C51.2605 7.14667 52.6205 6.592 54.2419 6.592C55.8632 6.592 57.2179 7.152 58.3059 8.272C59.4045 9.38133 59.9539 10.7573 59.9539 12.4C59.9539 14.0533 59.4045 15.4347 58.3059 16.544C57.2179 17.6533 55.8579 18.208 54.2259 18.208C52.6045 18.208 51.2499 17.6587 50.1619 16.56C49.0739 15.4507 48.5299 14.064 48.5299 12.4ZM49.8739 12.4C49.8739 13.7227 50.2899 14.8213 51.1219 15.696C51.9539 16.56 52.9939 16.992 54.2419 16.992C55.4899 16.992 56.5299 16.56 57.3619 15.696C58.1939 14.8213 58.6099 13.7227 58.6099 12.4C58.6099 11.088 58.1885 9.99467 57.3459 9.12C56.5139 8.24533 55.4792 7.808 54.2419 7.808C53.0045 7.808 51.9645 8.24533 51.1219 9.12C50.2899 9.99467 49.8739 11.088 49.8739 12.4ZM74.1606 15.792L74.5606 16.928C74.3686 17.0987 74.134 17.2693 73.8566 17.44C73.5793 17.6107 73.1686 17.7813 72.6246 17.952C72.0806 18.1227 71.5206 18.208 70.9446 18.208C69.3126 18.208 67.958 17.6587 66.8806 16.56C65.8033 15.4507 65.2646 14.064 65.2646 12.4C65.2646 10.7573 65.8086 9.38133 66.8966 8.272C67.9846 7.152 69.3233 6.592 70.9126 6.592C72.2673 6.592 73.4246 6.98133 74.3846 7.76L73.9686 8.912C73.062 8.176 72.054 7.808 70.9446 7.808C69.7073 7.808 68.6726 8.25067 67.8406 9.136C67.0193 10.0107 66.6086 11.0987 66.6086 12.4C66.6086 13.7227 67.014 14.8213 67.8246 15.696C68.646 16.56 69.6966 16.992 70.9766 16.992C72.1393 16.992 73.2006 16.592 74.1606 15.792ZM75.6846 13.872C75.6846 12.5707 76.074 11.5147 76.8526 10.704C77.6313 9.88267 78.586 9.472 79.7166 9.472C80.922 9.472 81.882 9.86667 82.5966 10.656C83.3113 11.4347 83.6686 12.4587 83.6686 13.728C83.6686 13.8773 83.6633 14.0053 83.6526 14.112H76.9806C76.9913 15.0293 77.274 15.7547 77.8286 16.288C78.3833 16.8213 79.098 17.088 79.9726 17.088C81.082 17.088 81.946 16.656 82.5646 15.792L83.3966 16.4C83.1086 16.88 82.6766 17.3013 82.1006 17.664C81.5246 18.0267 80.81 18.208 79.9566 18.208C78.698 18.208 77.6686 17.808 76.8686 17.008C76.0793 16.1973 75.6846 15.152 75.6846 13.872ZM77.0446 13.168H82.3726C82.33 12.336 82.058 11.696 81.5566 11.248C81.0553 10.7893 80.442 10.56 79.7166 10.56C79.0233 10.56 78.4153 10.8053 77.8926 11.296C77.37 11.776 77.0873 12.4 77.0446 13.168ZM89.0035 9.472V10.736C87.3608 10.736 86.5395 11.8293 86.5395 14.016V18H85.2755V9.68H86.5235V11.072C86.6728 10.624 86.9715 10.2453 87.4195 9.936C87.8782 9.62667 88.4062 9.472 89.0035 9.472ZM90.9965 9.68V7.936H92.2605V9.68H94.0845V10.752H92.2605V15.04C92.2605 15.7867 92.3725 16.2933 92.5965 16.56C92.8312 16.8267 93.2312 16.96 93.7965 16.96L94.1485 16.944V18.064C93.9245 18.096 93.6685 18.112 93.3805 18.112C91.7912 18.112 90.9965 17.1253 90.9965 15.152V10.752H90.0205V9.68H90.9965ZM95.6193 18V9.68H96.8832V18H95.6193ZM95.3793 7.536C95.3793 7.30133 95.4593 7.09867 95.6193 6.928C95.7899 6.75733 95.9979 6.672 96.2433 6.672C96.4886 6.672 96.6966 6.75733 96.8673 6.928C97.0379 7.088 97.1233 7.29067 97.1233 7.536C97.1233 7.78133 97.0379 7.98933 96.8673 8.16C96.6966 8.33067 96.4886 8.416 96.2433 8.416C95.9979 8.416 95.7899 8.33067 95.6193 8.16C95.4593 7.98933 95.3793 7.78133 95.3793 7.536ZM99.3128 18V10.752H98.3848V9.68H99.3128V9.248C99.3128 8.27733 99.5581 7.57333 100.049 7.136C100.539 6.69867 101.163 6.48 101.921 6.48L102.449 6.512V7.616C102.31 7.59467 102.177 7.584 102.049 7.584C101.078 7.584 100.593 8.13867 100.593 9.248V9.68H102.369V10.752H100.593V18H99.3128ZM103.76 18V9.68H105.024V18H103.76ZM103.52 7.536C103.52 7.30133 103.6 7.09867 103.76 6.928C103.931 6.75733 104.139 6.672 104.384 6.672C104.629 6.672 104.837 6.75733 105.008 6.928C105.179 7.088 105.264 7.29067 105.264 7.536C105.264 7.78133 105.179 7.98933 105.008 8.16C104.837 8.33067 104.629 8.416 104.384 8.416C104.139 8.416 103.931 8.33067 103.76 8.16C103.6 7.98933 103.52 7.78133 103.52 7.536ZM106.653 13.872C106.653 12.5707 107.043 11.5147 107.821 10.704C108.6 9.88267 109.555 9.472 110.685 9.472C111.891 9.472 112.851 9.86667 113.565 10.656C114.28 11.4347 114.637 12.4587 114.637 13.728C114.637 13.8773 114.632 14.0053 114.621 14.112H107.949C107.96 15.0293 108.243 15.7547 108.797 16.288C109.352 16.8213 110.067 17.088 110.941 17.088C112.051 17.088 112.915 16.656 113.533 15.792L114.365 16.4C114.077 16.88 113.645 17.3013 113.069 17.664C112.493 18.0267 111.779 18.208 110.925 18.208C109.667 18.208 108.637 17.808 107.837 17.008C107.048 16.1973 106.653 15.152 106.653 13.872ZM108.013 13.168H113.341C113.299 12.336 113.027 11.696 112.525 11.248C112.024 10.7893 111.411 10.56 110.685 10.56C109.992 10.56 109.384 10.8053 108.861 11.296C108.339 11.776 108.056 12.4 108.013 13.168ZM123.86 6.432V18H122.628V16.688C121.935 17.7013 120.975 18.208 119.748 18.208C118.554 18.208 117.578 17.8027 116.82 16.992C116.063 16.1707 115.684 15.1253 115.684 13.856C115.684 12.5653 116.052 11.5147 116.788 10.704C117.524 9.88267 118.479 9.472 119.652 9.472C120.41 9.472 121.039 9.648 121.54 10C122.042 10.3413 122.388 10.6827 122.58 11.024V6.432H123.86ZM122.628 13.872C122.628 12.8693 122.356 12.08 121.812 11.504C121.279 10.9173 120.607 10.624 119.796 10.624C118.975 10.624 118.298 10.928 117.764 11.536C117.242 12.144 116.98 12.9227 116.98 13.872C116.98 14.8213 117.247 15.5947 117.78 16.192C118.324 16.7787 119.002 17.072 119.812 17.072C120.666 17.072 121.348 16.7627 121.86 16.144C122.372 15.5253 122.628 14.768 122.628 13.872Z" fill="#015A50"/>
</svg>
