<svg width="48" height="32" viewBox="0 0 48 32" fill="none" xmlns="http://www.w3.org/2000/svg">
<path d="M9.98933 16.5361C10.0274 18.4717 10.4396 20.2102 11.5934 21.7224C13.1437 23.7544 15.3213 24.7469 17.7027 25.3719C18.7087 25.6363 19.7437 25.7909 20.8056 26.0059V31.9674C19.8467 31.8935 18.9192 31.8554 18.003 31.7479C15.57 31.4656 13.184 30.9638 10.8989 30.0519C6.30177 28.2171 3.00177 25.0896 1.32601 20.3738C0.0826263 16.8744 -0.302709 13.2585 0.239446 9.58883C0.736806 6.21941 2.30951 3.41901 5.2421 1.55506C7.60116 0.0562767 10.2133 -0.241686 12.9309 0.253426C15.3011 0.685807 17.2838 1.75445 18.6347 3.81554C20.5076 6.67196 20.3777 11.1033 18.2763 13.6976C16.5042 15.8841 14.1025 16.7108 11.347 16.6436C10.9213 16.6324 10.4956 16.5764 9.98713 16.5338L9.98933 16.5361Z" fill="#015A50"/>
<path d="M35.7983 16.5574C35.8543 19.7477 37.0596 22.2053 39.7682 23.8587C41.6344 24.9967 43.6887 25.5389 45.817 25.8727C46.0747 25.913 46.3323 25.9534 46.6303 26.0004V32C45.7745 31.935 44.9456 31.8902 44.1211 31.8051C41.0832 31.487 38.1305 30.8305 35.3637 29.4886C30.4507 27.1049 27.5382 23.1597 26.4136 17.8703C25.7729 14.8615 25.5331 11.8169 26.2187 8.7768C26.9849 5.3715 28.7323 2.58678 31.9674 1.11265C35.8028 -0.637046 39.6024 -0.365966 43.0278 2.23057C44.5289 3.36865 45.313 5.03994 45.6087 6.91733C45.9761 9.24726 45.7095 11.4719 44.3071 13.4232C42.5708 15.8383 40.0863 16.7255 37.2008 16.6829C36.9767 16.6807 36.7549 16.6515 36.5309 16.6314C36.3113 16.6112 36.0918 16.5888 35.7983 16.5597V16.5574Z" fill="#015A50"/>
</svg>
